<svg xmlns="http://www.w3.org/2000/svg" version="1.1" xmlns:xlink="http://www.w3.org/1999/xlink" xmlns:svgjs="http://svgjs.dev/svgjs" width="1000" height="1000" viewBox="0 0 1000 1000"><rect width="1000" height="1000" fill="#000000"></rect><g transform="matrix(0.7,0,0,0.7,150,106.25)"><svg viewBox="0 0 320 360" data-background-color="#000000" preserveAspectRatio="xMidYMid meet" height="1125" width="1000" xmlns="http://www.w3.org/2000/svg" xmlns:xlink="http://www.w3.org/1999/xlink"><g id="tight-bounds" transform="matrix(1,0,0,1,0,0)"><svg viewBox="0 0 320 360" height="360" width="320"><g><svg></svg></g><g><svg viewBox="0 0 320 360" height="360" width="320"><g><path xmlns="http://www.w3.org/2000/svg" d="M219.58 41.008c0.707 0 6.365 2.829 9.547 3.89-1.061 0.354-3.536-0.707-6.365-1.768 0.707 0 2.122 0.354 3.536 1.06-0.707-0.707-6.011-2.475-6.718-3.182M166.895 30.047c1.061-0.354 13.436 1.414 19.094 1.768 0.354-0.354-0.707-0.354-2.122-0.707 1.768-0.354 5.304 0.707 7.779 1.06-7.425 0.354-15.558-1.768-22.629-1.06-2.475 0-0.707-0.707-2.122-1.061M156.641 30.047c6.365 0 11.315 0 2.121 0.707-1.061-0.354-2.475-0.354-2.121-0.707M256.707 59.395c0.707 0 3.536 3.182 4.95 4.243-0.354 0.354-3.182-2.475-4.596-3.536 0.354 0.354 0 0-0.354-0.707M249.635 54.798c-2.829-2.475-3.889-2.475-4.243-3.889 2.475 1.414 4.243 2.829 4.243 3.889M204.022 32.522c0.354-0.354 1.061 0.354 2.829 0.707-2.122-0.354-1.768 0-1.061 0.707-2.475-0.354-3.182-0.707-2.475-1.414 1.414 0.707 1.768 0.354 0.707 0M103.602 36.765c0-0.354 1.414-1.061 2.475-1.414-1.061 0.707-0.707 1.061 1.061 0.353 0 0.354-2.122 1.061-3.536 1.768 0.707-0.354 1.414-1.414 0-0.707M211.094 28.986c-1.061 0.354-4.95-1.768-8.84-2.475-2.122-0.707 8.486 1.768 8.84 2.475M2.475 203.66c2.122 8.84 0.707 8.486 0 0M2.829 150.621c0.354-1.414 0.707-5.304 1.06-4.95-1.061 8.486-2.829 12.376-3.182 18.74 1.061-5.657-0.354 3.182-0.707 5.304 0.354 2.829 0.354-1.768 1.061-1.06 0.707 1.061-1.414 15.912-0.707 7.779-0.707 7.425 0 15.558 1.414 17.679-1.768 11.315 7.072 36.773 8.84 42.077 0.354 0.354 0-1.768 0.707-0.353 0.707 4.597 3.889 7.779 4.95 12.729 1.061 1.414 5.304 9.193 6.011 10.962 1.414 2.829 2.122 2.475 3.536 5.303 4.243 8.133 10.961 15.912 17.326 23.337 20.508 24.044 51.978 43.845 86.984 50.918 35.006 7.425 71.779 2.122 100.419-11.669 1.768-1.061 1.414-1.414 3.536-2.122 9.901-3.182 21.923-13.436 28.641-17.326 3.182-3.536 11.669-9.547 12.73-13.082 6.011-4.95 12.022-13.083 15.204-18.387 1.768-2.829 3.182-2.829 3.889-4.597-0.354 0 5.657-7.425 7.426-11.668-0.707 0-1.768 2.122-1.768 0 12.729-24.398 19.801-57.282 15.911-79.912 0.707 27.934-6.365 59.05-19.801 78.851-6.011 12.729-18.387 26.519-29.701 36.42-1.768 1.768-3.536 3.889-5.658 5.304-6.718 5.657-14.144 10.254-21.922 14.497-18.387 10.254-38.895 19.094-62.94 19.447 41.37-3.536 78.497-24.398 99.006-49.856-15.558 15.204-22.276 21.215-39.602 30.055-1.414 2.475-13.083 7.425-20.862 9.547 4.597-2.122 14.144-5.657 17.326-8.486-25.812 12.376-54.453 19.448-81.326 15.558 10.254 0 24.751 0.354 38.541-2.121 2.122-0.707 3.182-1.414 5.658-1.768 26.873-6.011 52.685-19.094 71.072-37.481-10.608 9.547-26.519 20.862-36.774 24.398 9.547-5.304 26.873-15.558 32.53-23.337-11.315 11.315-32.53 22.63-45.966 27.58-2.122 0.354 1.414-1.414-2.122 0-4.243 1.061-2.475 1.061-3.536 1.768-16.265 4.597-35.006 8.486-50.563 7.072-2.829-0.354-3.889-1.061-6.365-1.061-2.829-0.354-5.304-0.354-8.486-0.354-12.376-1.414-25.812-6.365-35.713-10.607-5.304-2.475-10.608-4.243-15.912-7.426-4.243-2.475-7.779-5.304-11.314-8.132-13.436-9.901-24.751-19.801-35.36-33.945-19.094-26.519-28.994-59.757-27.58-92.641 1.414-32.884 14.497-65.061 35.359-88.752-1.061 1.061 1.414-2.475 3.536-4.596 0 0.707-0.354 1.768 2.122-0.707 2.122-2.475-0.707-0.707 0.353-2.122 21.923-24.044 60.111-43.492 99.36-44.199 1.414-1.061 3.889-2.475 6.718-1.768 0 0.354-1.768 0.354-1.768 0.354 3.889-0.354 7.425-0.354 9.193 0.353 0.354-0.354-1.414-0.707 0-0.707 2.475 0.707 3.182 0 4.597 0.707-1.061 0-2.122 0-2.829 0.354 8.84 0 14.497 2.122 23.337 2.829-4.597-1.061-5.657-1.061-9.193-2.122 3.889 0.707 5.657 1.414 7.425 1.061-0.707 0-0.354-1.061 0.354-0.707 7.072 1.768 7.779 2.475 15.204 4.95 0.707-0.707-3.182-1.061-4.243-2.122 7.072 2.475 13.436 4.243 17.68 7.072-1.414-1.061-5.657-2.475-8.84-3.889-0.354 0.354 1.061 0.707 1.414 1.414-3.536-1.768-8.486-3.536-13.436-4.243 4.243 1.061 7.072 2.475 8.84 3.182-3.889-0.707-8.84-3.182-14.498-4.243 9.193 2.829 26.519 9.193 37.127 14.851-3.889-2.475-8.486-4.243-10.961-5.657 2.122 0.354 4.597 1.768 4.597 1.06 2.475 1.061 5.657 3.536 7.425 3.89-3.182-2.122-9.547-5.304-11.668-6.365 26.519 12.022 50.21 32.177 65.414 57.989 1.414 2.475 3.536 8.133 5.304 8.84-0.354-1.768-1.768-2.829-3.182-5.657 0.707 0 0.707-1.061 0-2.122-1.414-1.768 0 1.414-1.415-0.354-6.365-11.669-14.144-21.923-26.165-33.237 6.718 6.365 1.768 1.768 0.353-0.354 9.193 8.133 19.801 21.923 24.398 28.995-0.707-1.061-1.061-1.768-0.707-1.768 8.486 14.497 13.79 27.58 19.094 46.32 0.354 0.354 0-1.414 0.707-0.353 3.536 14.851 4.597 27.227 4.243 38.541 2.829-19.094-3.536-48.796-14.851-72.133-1.414-2.829-1.414-0.707-2.829-3.889 0-1.061-1.061-3.182-1.768-4.597-14.144-23.337-31.47-39.956-51.978-53.038 1.414 0.707 4.243 2.829 4.244 2.475-38.188-25.105-82.387-28.641-118.807-20.862-2.475 1.061-3.536 2.122-6.365 3.536 5.304-1.768 8.486-2.122 13.437-3.183 1.061-1.061-4.597 0.354-2.122-0.707 0.354 0.354 4.95-0.707 6.011-0.353 0 0.354-1.414 0.707-1.768 1.06 11.669-2.475 23.691-2.829 33.945-2.121-6.011 0.354-16.972-0.707-20.508 1.061 3.536-0.354 8.486-0.707 11.668-0.354-4.243 0-12.022 0.354-15.558 0.707-0.354-0.354 5.657-1.061 1.768-1.06-1.768 0.354-4.597 0.354-5.657 1.414-30.409 2.829-60.111 18.74-80.973 37.481-4.243 3.536-9.193 7.425-12.375 11.314-7.779 8.84-12.729 17.68-18.387 25.459 3.536-7.425 11.315-18.74 20.508-28.287 9.193-9.547 19.094-17.68 24.398-21.923 0 1.414 8.486-5.304 11.669-7.425-2.122 1.768 1.414-0.707 2.121-0.354 11.315-6.718 20.508-9.193 30.763-13.083-2.475 0.707-4.597 1.414-4.951 1.061 2.475-0.707 3.889-1.414 3.536-1.768-9.901 2.829-25.459 9.547-37.834 16.972 22.276-15.204 50.564-24.398 78.497-24.751 27.934-0.707 55.16 6.365 76.729 17.68 14.497 6.365 28.287 18.033 39.249 29.348 3.182 2.829 0.707-0.707 5.304 4.243-1.414-0.707-2.475-1.414-0.707 0.707 2.829 3.182-0.707-2.475 3.889 3.182-0.354 0-1.768-1.768-1.768-1.061 12.376 10.961 21.923 30.762 27.58 43.846-1.414-5.304-4.95-12.729-7.779-18.033 8.486 15.558 11.315 24.751 14.851 38.541 1.414 1.061-0.707-4.95 0.707-2.121 0.354 2.122 0.707 8.84 2.122 9.9-1.061-6.718-2.829-14.851-4.243-16.265 1.061 0.707-1.768-8.133-3.536-10.254-0.707-5.657-5.657-15.558-9.901-22.984-15.204-29.702-42.431-54.099-72.839-67.536 0-0.707-1.768-1.414-2.476-2.121-30.055-12.729-66.122-16.265-100.773-8.133-35.006 8.486-67.889 28.641-91.227 57.636 1.061-3.536 9.901-10.254 10.255-13.083-10.254 10.961-21.215 25.459-28.641 41.016-7.779 15.558-12.022 31.47-13.79 43.138" fill="#ff4057" fill-rule="nonzero" stroke="none" stroke-width="1" stroke-linecap="butt" stroke-linejoin="miter" stroke-miterlimit="10" stroke-dasharray="" stroke-dashoffset="0" font-family="none" font-weight="none" font-size="none" text-anchor="none" style="mix-blend-mode: normal" data-fill-palette-color="tertiary"></path></g><g transform="matrix(1,0,0,1,48.000000000000014,139.50333038178206)"><svg viewBox="0 0 223.99999999999997 80.99333923643589" height="80.99333923643589" width="223.99999999999997"><g><svg viewBox="0 0 223.99999999999997 80.99333923643589" height="80.99333923643589" width="223.99999999999997"><g><svg viewBox="0 0 223.99999999999997 80.99333923643589" height="80.99333923643589" width="223.99999999999997"><g><svg viewBox="0 0 223.99999999999997 80.99333923643589" height="80.99333923643589" width="223.99999999999997"><g id="textblocktransform"><svg viewBox="0 0 223.99999999999997 80.99333923643589" height="80.99333923643589" width="223.99999999999997" id="textblock"><g><svg viewBox="0 0 223.99999999999997 43.683937031942534" height="43.683937031942534" width="223.99999999999997"><g transform="matrix(1,0,0,1,0,0)"><svg width="223.99999999999997" viewBox="0.10000000149011612 -43.849998474121094 327.1099853515625 63.79999923706055" height="43.683937031942534" data-palette-color="#ff4057"><path d="M8 0.5Q5.6 0.5 3.83-0.4 2.05-1.3 1.13-2.63 0.2-3.95 0.1-5.25L0.1-5.25Q0.1-6.5 0.83-7.98 1.55-9.45 2.55-10.5 3.55-11.55 4.1-11.55L4.1-11.55Q4.35-11.55 4.45-10.95L4.45-10.95Q4.85-7.9 5.28-6.33 5.7-4.75 6.68-3.93 7.65-3.1 9.6-3.1L9.6-3.1Q12.3-3.1 13.68-4.5 15.05-5.9 15.05-8.3L15.05-8.3Q15.05-9.9 14.45-11.1 13.85-12.3 12.3-14.25L12.3-14.25 7.55-19.85Q6.45-21.15 6.03-22.28 5.6-23.4 5.6-24.8L5.6-24.8Q5.6-27.4 6.9-29.8 8.2-32.2 10.73-33.7 13.25-35.2 16.75-35.2L16.75-35.2Q19.7-35.2 21.38-34.05 23.05-32.9 23.05-30.8L23.05-30.8Q23.05-29.95 22.8-29.13 22.55-28.3 22.15-27.65L22.15-27.65Q21.6-26.8 21.18-26.45 20.75-26.1 20.25-26.1L20.25-26.1Q19.7-26.1 19.5-26.58 19.3-27.05 19.2-27.9L19.2-27.9Q19.05-29.8 18.18-30.83 17.3-31.85 15.15-31.85L15.15-31.85Q12.9-31.85 11.65-30.73 10.4-29.6 10.4-27.8L10.4-27.8Q10.4-26.75 10.8-25.88 11.2-25 12.05-24L12.05-24 16.85-18.5Q18.6-16.55 19.4-14.75 20.2-12.95 20.2-10.95L20.2-10.95Q20.2-7.95 18.5-5.3 16.8-2.65 13.98-1.07 11.15 0.5 8 0.5L8 0.5ZM26.05 19.95Q23.85 19.95 22.3 18.85 20.75 17.75 20 16.13 19.25 14.5 19.25 12.9L19.25 12.9Q19.25 11.2 20.07 9.95 20.9 8.7 21.92 8.08 22.95 7.45 23.45 7.45L23.45 7.45Q23.65 7.45 23.75 7.6 23.85 7.75 23.85 8.25L23.85 8.25Q23.9 12.25 24.87 14 25.85 15.75 28.5 15.75L28.5 15.75Q32.55 15.75 34.45 11.65L34.45 11.65Q34.9 10.65 35.17 9.5 35.45 8.35 36.15 5.1L36.15 5.1 37.3-0.5 38.3-5.2 38.2-5.2Q36.3-2.5 34.55-1 32.8 0.5 31.45 0.5L31.45 0.5Q28.7 0.5 28.8-5.85L28.8-5.85 29.1-17.25Q29.15-18.5 28.97-18.95 28.8-19.4 28.3-19.4L28.3-19.4Q27.8-19.4 27.37-18.93 26.95-18.45 26.3-17.35L26.3-17.35Q25.8-16.55 25.6-16.28 25.4-16 25.1-16L25.1-16Q24.8-16 24.7-16.18 24.6-16.35 24.6-16.8L24.6-16.8Q24.6-18.2 25.57-19.88 26.55-21.55 28.07-22.68 29.6-23.8 31.15-23.8L31.15-23.8Q32.75-23.8 33.4-22.48 34.05-21.15 34.05-18.3L34.05-18.3Q34.05-17.05 34-16.35L34-16.35 33.75-10Q33.65-8 33.65-7.55L33.65-7.55Q33.65-6.15 33.85-5.65 34.05-5.15 34.45-5.15L34.45-5.15Q35.3-5.15 36.47-6.85 37.65-8.55 38.75-11.25 39.85-13.95 40.5-16.75L40.5-16.75 41.2-19.7Q41.55-21.25 43.17-22.53 44.8-23.8 46.4-23.8L46.4-23.8Q47.4-23.8 47.4-23.15L47.4-23.15Q47.4-22.95 47.2-22.53 47-22.1 46.8-21.5L46.8-21.5Q46.15-19.85 45.4-16.3L45.4-16.3 42.75-3.3 42.25-0.9Q41.3 3.75 40.75 5.9 40.2 8.05 39.37 9.83 38.55 11.6 37.05 13.5L37.05 13.5Q34.55 16.6 31.65 18.28 28.75 19.95 26.05 19.95L26.05 19.95ZM53.4 0.5Q50.8 0.5 49.32-1.28 47.85-3.05 47.85-6.25L47.85-6.25Q47.85-10 49.77-14.13 51.7-18.25 54.67-21.03 57.65-23.8 60.65-23.8L60.65-23.8Q62.3-23.8 63.27-22.85 64.25-21.9 64.25-20.1L64.25-20.1Q64.25-17.85 62.8-15.48 61.35-13.1 58.82-11.08 56.3-9.05 53.15-7.8L53.15-7.8Q53.3-4.35 56.2-4.35L56.2-4.35Q57.8-4.35 59.22-5.35 60.65-6.35 61.75-8.05L61.75-8.05Q62-8.5 62.2-8.72 62.4-8.95 62.6-8.95L62.6-8.95Q62.9-8.95 63-8.75 63.1-8.55 63.1-8.05L63.1-8.05Q63.1-6.45 61.67-4.4 60.25-2.35 58-0.93 55.75 0.5 53.4 0.5L53.4 0.5ZM54.4-11.9Q55.5-11.9 56.65-12.68 57.8-13.45 58.55-14.7 59.3-15.95 59.3-17.4L59.3-17.4Q59.3-19.2 57.85-19.2L57.85-19.2Q56.3-19.2 55.05-17.25 53.8-15.3 53.45-12.05L53.45-12.05Q53.75-11.9 54.4-11.9L54.4-11.9ZM69.24 0.5Q67.69 0.5 66.82-1.05 65.94-2.6 65.94-5.2L65.94-5.2Q65.94-9.25 67.94-13.63 69.94-18 73.29-20.9 76.64-23.8 80.49-23.8L80.49-23.8 80.64-23.8Q82.24-30.55 83.57-33.98 84.89-37.4 87.09-39.7L87.09-39.7Q88.99-41.65 90.72-42.33 92.44-43 94.64-43.35L94.64-43.35Q96.24-43.6 96.74-43.73 97.24-43.85 97.34-43.85L97.34-43.85Q97.74-43.85 97.74-43.3L97.74-43.3Q97.74-42.85 97.39-42.23 97.04-41.6 96.54-41.05L96.54-41.05Q95.99-40.6 95.44-40.45 94.89-40.3 94.04-40.3L94.04-40.3Q91.19-40.1 89.34-37.2L89.34-37.2Q88.24-35.45 87.49-32.55 86.74-29.65 85.14-21.25L85.14-21.25Q85.14-21.1 83.64-13.05L83.64-13.05Q82.69-8.1 82.59-7.55L82.59-7.55Q82.29-6.05 82.29-5.25L82.29-5.25Q82.29-4.7 82.47-4.45 82.64-4.2 82.99-4.2L82.99-4.2Q83.84-4.2 84.52-5.2 85.19-6.2 86.04-8.1L86.04-8.1Q86.09-8.15 86.19-8.38 86.29-8.6 86.42-8.7 86.54-8.8 86.69-8.8L86.69-8.8Q87.09-8.8 87.09-7.9L87.09-7.9Q87.09-6.2 86.04-4.23 84.99-2.25 83.34-0.88 81.69 0.5 80.09 0.5L80.09 0.5Q78.79 0.5 78.07-0.45 77.34-1.4 77.34-3L77.34-3Q77.34-3.4 77.44-4.2L77.44-4.2 77.69-5.9 77.59-5.9Q75.74-3.1 73.37-1.3 70.99 0.5 69.24 0.5L69.24 0.5ZM72.09-4.45Q73.19-4.45 74.92-6.4 76.64-8.35 78.14-11.33 79.64-14.3 80.14-17.25L80.14-17.25 80.49-19.2Q79.24-19.95 78.19-19.95L78.19-19.95Q76.59-19.95 74.97-17.98 73.34-16 72.32-12.88 71.29-9.75 71.29-6.5L71.29-6.5Q71.29-5.3 71.47-4.88 71.64-4.45 72.09-4.45L72.09-4.45ZM103.99 0Q103.59 0 103.59-0.5L103.59-0.5Q103.59-1.2 104.16-2.25 104.74-3.3 105.54-3.7L105.54-3.7Q105.74-3.8 106.46-4.13 107.19-4.45 107.44-4.7L107.44-4.7Q107.94-5.1 108.19-6.05 108.44-7 108.64-8.8L108.64-8.8 111.79-30.9Q110.79-30.9 109.74-30.75L109.74-30.75Q108.69-30.65 107.79-30.45 106.89-30.25 106.59-30.25L106.59-30.25Q106.14-30.25 106.14-30.8L106.14-30.8Q106.14-31.4 106.54-32.1L106.54-32.1Q107.84-34.7 110.74-34.7L110.74-34.7 113.29-34.7Q116.84-34.7 118.74-34.85L118.74-34.85Q122.34-35.1 122.09-35.1L122.09-35.1Q122.49-35.1 122.49-34.6L122.49-34.6Q122.49-34.2 122.09-33.55L122.09-33.55Q121.84-33.15 121.49-32.5 121.14-31.85 120.74-31.63 120.34-31.4 119.59-31.3L119.59-31.3 118.34-31.2Q117.84-31.2 117.14-31.1L117.14-31.1 113.64-6.95Q113.54-6.1 113.24-5.38 112.94-4.65 112.54-4.3L112.54-4.3 112.54-4.2Q114.54-3.9 115.09-3.9L115.09-3.9Q116.04-3.9 116.61-4.15 117.19-4.4 117.29-4.4L117.29-4.4Q117.69-4.4 117.69-3.95L117.69-3.95Q117.69-3.55 117.04-2.5L117.04-2.5Q115.29 0 113.09 0L113.09 0Q112.54 0 111.24-0.3L111.24-0.3Q109.44-0.8 108.09-0.8L108.09-0.8Q106.49-0.8 105.34-0.4 104.19 0 103.99 0L103.99 0ZM122.94 0.5Q122.09 0.5 122.09-0.1L122.09-0.1Q122.09-0.35 122.46-1.23 122.84-2.1 123.19-3.95L123.19-3.95 124.04-8.75Q125.39-16.45 125.44-17.75L125.44-17.75 125.44-18.2Q125.44-19.05 124.99-19.05L124.99-19.05Q124.04-19.05 122.39-16L122.39-16Q122.19-15.6 121.94-15.28 121.69-14.95 121.44-14.95L121.44-14.95Q120.94-14.95 120.94-15.8L120.94-15.8Q120.94-17.1 122.11-19.03 123.29-20.95 125.01-22.38 126.74-23.8 128.34-23.8L128.34-23.8Q130.49-23.8 130.49-20.95L130.49-20.95Q130.49-20.35 130.09-16.75L130.09-16.75 130.14-16.75Q132.24-20.45 134.11-22.13 135.99-23.8 137.89-23.8L137.89-23.8Q139.19-23.8 139.99-23.05 140.79-22.3 140.79-20.9L140.79-20.9Q140.79-19.55 140.16-18.25 139.54-16.95 138.64-16.13 137.74-15.3 137.09-15.3L137.09-15.3Q136.69-15.3 136.84-15.8L136.84-15.8Q136.99-16.5 136.99-17.1L136.99-17.1Q136.99-18.4 135.84-18.4L135.84-18.4Q133.94-18.4 132.06-15.8 130.19-13.2 129.14-8.3L129.14-8.3Q128.39-5.2 128.14-3.45L128.14-3.45Q127.89-2.05 126.16-0.78 124.44 0.5 122.94 0.5L122.94 0.5ZM135.68 19.95Q134.28 19.95 133.71 19.68 133.13 19.4 132.38 18.55L132.38 18.55Q131.33 17.2 131.33 16.5L131.33 16.5Q131.33 16 131.98 16L131.98 16Q132.38 16 133.43 16.3L133.43 16.3Q135.33 16.85 136.73 16.85L136.73 16.85Q139.23 16.85 140.78 15.85 142.33 14.85 143.31 12.35 144.28 9.85 144.98 5.1L144.98 5.1 148.63-19.2 146.28-19.2Q145.13-19.2 144.33-18.85 143.53-18.5 143.33-18.5L143.33-18.5Q142.88-18.5 142.88-18.95L142.88-18.95Q142.88-19.45 143.13-19.95L143.13-19.95Q143.73-21.35 144.96-22.33 146.18-23.3 147.53-23.3L147.53-23.3 149.28-23.3 149.38-24.2Q151.18-34.9 156.03-39.8L156.03-39.8Q157.78-41.65 159.41-42.35 161.03-43.05 162.98-43.35L162.98-43.35Q164.53-43.6 165.01-43.73 165.48-43.85 165.63-43.85L165.63-43.85Q166.08-43.85 166.08-43.3L166.08-43.3Q166.08-42.85 165.71-42.23 165.33-41.6 164.78-41.05L164.78-41.05Q164.28-40.55 163.73-40.43 163.18-40.3 162.33-40.3L162.33-40.3Q160.33-40.3 158.98-38.75L158.98-38.75Q157.58-37.2 156.51-33.73 155.43-30.25 154.43-24.2L154.43-24.2 154.28-23.3 156.33-23.3Q157.83-23.3 158.68-23.65 159.53-24 159.73-24L159.73-24Q160.23-24 160.23-23.5L160.23-23.5Q160.23-23.1 160.03-22.55L160.03-22.55Q159.53-21.3 158.26-20.25 156.98-19.2 155.63-19.2L155.63-19.2 153.68-19.2 150.98-1.5Q149.33 9.55 145.61 14.75 141.88 19.95 135.68 19.95L135.68 19.95ZM161.18 0.5Q159.63 0.5 158.76-1.05 157.88-2.6 157.88-5.2L157.88-5.2Q157.88-9.35 159.91-13.7 161.93-18.05 165.43-20.93 168.93-23.8 172.98-23.8L172.98-23.8Q174.28-23.8 175.56-23.5 176.83-23.2 177.63-22.75L177.63-22.75Q177.18-21.65 177.03-20.95 176.88-20.25 176.83-20.05L176.83-20.05Q176.48-18.25 175.81-14.58 175.13-10.9 174.53-7.55L174.53-7.55Q174.23-6.05 174.23-5.25L174.23-5.25Q174.23-4.7 174.41-4.45 174.58-4.2 174.93-4.2L174.93-4.2Q175.78-4.2 176.48-5.23 177.18-6.25 177.98-8.1L177.98-8.1Q178.08-8.4 178.23-8.6 178.38-8.8 178.63-8.8L178.63-8.8Q179.08-8.8 179.08-8.1L179.08-8.1Q179.08-7.75 179.03-7.55L179.03-7.55Q178.78-5.65 177.73-3.78 176.68-1.9 175.16-0.7 173.63 0.5 172.03 0.5L172.03 0.5Q170.73 0.5 170.01-0.45 169.28-1.4 169.28-3L169.28-3Q169.28-3.4 169.38-4.2L169.38-4.2 169.63-5.9 169.53-5.9Q167.68-3.1 165.31-1.3 162.93 0.5 161.18 0.5L161.18 0.5ZM164.03-4.45Q165.13-4.45 166.86-6.4 168.58-8.35 170.08-11.33 171.58-14.3 172.08-17.25L172.08-17.25 172.43-19.2Q171.18-19.95 170.13-19.95L170.13-19.95Q168.53-19.95 166.91-17.98 165.28-16 164.26-12.88 163.23-9.75 163.23-6.5L163.23-6.5Q163.23-5.3 163.41-4.88 163.58-4.45 164.03-4.45L164.03-4.45ZM183.43 0.5Q182.63 0.5 182.63-0.05L182.63-0.05Q182.63-0.25 182.88-1.1L182.88-1.1Q183.13-1.75 183.58-3.6L183.58-3.6Q183.93-5.05 184.58-8.85 185.23-12.65 185.78-16.25L185.78-16.25Q186.03-17.85 186.03-18.3L186.03-18.3Q186.03-19.05 185.58-19.05L185.58-19.05Q185.13-19.05 184.43-18.28 183.73-17.5 182.93-16L182.93-16Q182.73-15.6 182.48-15.28 182.23-14.95 181.98-14.95L181.98-14.95Q181.48-14.95 181.48-15.8L181.48-15.8Q181.48-17.15 182.65-19.07 183.83-21 185.55-22.4 187.28-23.8 188.88-23.8L188.88-23.8Q189.88-23.8 190.48-23.1 191.08-22.4 191.08-20.9L191.08-20.9Q191.08-18.95 190.68-16.45L190.68-16.45 190.73-16.45Q196.08-23.8 199.73-23.8L199.73-23.8Q202.28-23.8 202.28-20.25L202.28-20.25Q202.28-18.7 201.83-16.45L201.83-16.45Q200.63-10.6 200.18-8.18 199.73-5.75 199.73-5.25L199.73-5.25Q199.73-4.2 200.33-4.2L200.33-4.2Q201.73-4.2 203.18-8.1L203.18-8.1Q203.48-8.8 203.83-8.8L203.83-8.8Q204.43-8.8 204.33-7.55L204.33-7.55Q204.13-5.8 203.03-3.9 201.93-2 200.3-0.75 198.68 0.5 197.03 0.5L197.03 0.5Q194.58 0.5 194.58-2.8L194.58-2.8Q194.58-4.1 194.88-5.95 195.18-7.8 195.78-10.7L195.78-10.7Q196.18-12.65 196.5-14.6 196.83-16.55 196.88-17.75L196.88-17.75 196.88-18.15Q196.88-18.95 196.38-18.95L196.38-18.95Q195.53-18.95 194.03-17.18 192.53-15.4 191.2-12.75 189.88-10.1 189.38-7.65L189.38-7.65 188.58-3.6Q188.28-2.1 186.65-0.8 185.03 0.5 183.43 0.5L183.43 0.5ZM221.57 0Q221.27 0 221.27-0.6L221.27-0.6Q221.27-1.25 221.67-1.85 222.07-2.45 222.82-3.2L222.82-3.2Q223.62-3.95 223.97-4.48 224.32-5 224.6-5.95 224.87-6.9 225.17-8.8L225.17-8.8 228.77-30.4 228.52-30.4Q226.47-30.4 225.3-29.95 224.12-29.5 223.32-28.95 222.52-28.4 222.32-28.4L222.32-28.4Q221.97-28.4 221.97-28.9L221.97-28.9Q221.97-29.15 222.07-29.65L222.07-29.65Q222.62-31.9 225.17-33.3 227.72-34.7 231.62-34.7L231.62-34.7Q233.37-34.7 235.87-34.45L235.87-34.45Q239.87-34.2 240.67-34.2L240.67-34.2Q242.62-34.2 243.77-34.43 244.92-34.65 245.75-34.93 246.57-35.2 246.87-35.2L246.87-35.2Q247.12-35.2 247.25-35.1 247.37-35 247.37-34.7L247.37-34.7Q247.37-33.9 246.6-32.77 245.82-31.65 244.32-30.8 242.82-29.95 240.67-29.95L240.67-29.95Q240.22-29.95 238.62-30.05L238.62-30.05Q236.22-30.25 234.12-30.25L234.12-30.25 232.27-18.95 241.92-18.95Q242.42-18.95 242.42-18.6L242.42-18.6Q242.42-18.15 241.8-17.13 241.17-16.1 240.27-15.3 239.37-14.5 238.47-14.5L238.47-14.5Q238.17-14.5 236.97-14.7L236.97-14.7Q234.72-15.15 233.27-15.15L233.27-15.15 231.57-15.15 230.17-6.55Q229.97-5.35 229.02-4.4L229.02-4.4 229.02-4.35Q229.72-3.85 231.02-3.85L231.02-3.85Q231.77-3.85 232.45-4.13 233.12-4.4 233.32-4.4L233.32-4.4Q233.77-4.4 233.77-3.95L233.77-3.95Q233.77-3.4 233.12-2.6L233.12-2.6Q231.12 0 229.22 0L229.22 0Q228.72 0 228.05-0.15 227.37-0.3 227.17-0.35L227.17-0.35Q225.82-0.8 224.77-0.8L224.77-0.8Q223.67-0.8 222.72-0.4 221.77 0 221.57 0L221.57 0ZM245.57 0.5Q244.02 0.5 243.15-1.05 242.27-2.6 242.27-5.2L242.27-5.2Q242.27-9.35 244.3-13.7 246.32-18.05 249.82-20.93 253.32-23.8 257.37-23.8L257.37-23.8Q258.67-23.8 259.95-23.5 261.22-23.2 262.02-22.75L262.02-22.75Q261.57-21.65 261.42-20.95 261.27-20.25 261.22-20.05L261.22-20.05Q260.87-18.25 260.2-14.58 259.52-10.9 258.92-7.55L258.92-7.55Q258.62-6.05 258.62-5.25L258.62-5.25Q258.62-4.7 258.8-4.45 258.97-4.2 259.32-4.2L259.32-4.2Q260.17-4.2 260.87-5.23 261.57-6.25 262.37-8.1L262.37-8.1Q262.47-8.4 262.62-8.6 262.77-8.8 263.02-8.8L263.02-8.8Q263.47-8.8 263.47-8.1L263.47-8.1Q263.47-7.75 263.42-7.55L263.42-7.55Q263.17-5.65 262.12-3.78 261.07-1.9 259.55-0.7 258.02 0.5 256.42 0.5L256.42 0.5Q255.12 0.5 254.4-0.45 253.67-1.4 253.67-3L253.67-3Q253.67-3.4 253.77-4.2L253.77-4.2 254.02-5.9 253.92-5.9Q252.07-3.1 249.7-1.3 247.32 0.5 245.57 0.5L245.57 0.5ZM248.42-4.45Q249.52-4.45 251.25-6.4 252.97-8.35 254.47-11.33 255.97-14.3 256.47-17.25L256.47-17.25 256.82-19.2Q255.57-19.95 254.52-19.95L254.52-19.95Q252.92-19.95 251.3-17.98 249.67-16 248.65-12.88 247.62-9.75 247.62-6.5L247.62-6.5Q247.62-5.3 247.8-4.88 247.97-4.45 248.42-4.45L248.42-4.45ZM267.87 0.5Q267.02 0.5 267.02-0.1L267.02-0.1Q267.02-0.35 267.39-1.23 267.77-2.1 268.12-3.95L268.12-3.95 268.97-8.75Q270.32-16.45 270.37-17.75L270.37-17.75 270.37-18.2Q270.37-19.05 269.92-19.05L269.92-19.05Q268.97-19.05 267.32-16L267.32-16Q267.12-15.6 266.87-15.28 266.62-14.95 266.37-14.95L266.37-14.95Q265.87-14.95 265.87-15.8L265.87-15.8Q265.87-17.1 267.04-19.03 268.22-20.95 269.94-22.38 271.67-23.8 273.27-23.8L273.27-23.8Q275.42-23.8 275.42-20.95L275.42-20.95Q275.42-20.35 275.02-16.75L275.02-16.75 275.07-16.75Q277.17-20.45 279.04-22.13 280.92-23.8 282.82-23.8L282.82-23.8Q284.12-23.8 284.92-23.05 285.72-22.3 285.72-20.9L285.72-20.9Q285.72-19.55 285.09-18.25 284.47-16.95 283.57-16.13 282.67-15.3 282.02-15.3L282.02-15.3Q281.62-15.3 281.77-15.8L281.77-15.8Q281.92-16.5 281.92-17.1L281.92-17.1Q281.92-18.4 280.77-18.4L280.77-18.4Q278.87-18.4 276.99-15.8 275.12-13.2 274.07-8.3L274.07-8.3Q273.32-5.2 273.07-3.45L273.07-3.45Q272.82-2.05 271.09-0.78 269.37 0.5 267.87 0.5L267.87 0.5ZM287.92 0.5Q286.37 0.5 285.49-1.05 284.62-2.6 284.62-5.2L284.62-5.2Q284.62-9.35 286.64-13.7 288.67-18.05 292.17-20.93 295.67-23.8 299.72-23.8L299.72-23.8Q301.02-23.8 302.29-23.5 303.57-23.2 304.37-22.75L304.37-22.75Q303.92-21.65 303.77-20.95 303.62-20.25 303.57-20.05L303.57-20.05Q303.22-18.25 302.54-14.58 301.87-10.9 301.27-7.55L301.27-7.55Q300.97-6.05 300.97-5.25L300.97-5.25Q300.97-4.7 301.14-4.45 301.32-4.2 301.67-4.2L301.67-4.2Q302.52-4.2 303.22-5.23 303.92-6.25 304.72-8.1L304.72-8.1Q304.82-8.4 304.97-8.6 305.12-8.8 305.37-8.8L305.37-8.8Q305.82-8.8 305.82-8.1L305.82-8.1Q305.82-7.75 305.77-7.55L305.77-7.55Q305.52-5.65 304.47-3.78 303.42-1.9 301.89-0.7 300.37 0.5 298.77 0.5L298.77 0.5Q297.47 0.5 296.74-0.45 296.02-1.4 296.02-3L296.02-3Q296.02-3.4 296.12-4.2L296.12-4.2 296.37-5.9 296.27-5.9Q294.42-3.1 292.04-1.3 289.67 0.5 287.92 0.5L287.92 0.5ZM290.77-4.45Q291.87-4.45 293.59-6.4 295.32-8.35 296.82-11.33 298.32-14.3 298.82-17.25L298.82-17.25 299.17-19.2Q297.92-19.95 296.87-19.95L296.87-19.95Q295.27-19.95 293.64-17.98 292.02-16 290.99-12.88 289.97-9.75 289.97-6.5L289.97-6.5Q289.97-5.3 290.14-4.88 290.32-4.45 290.77-4.45L290.77-4.45ZM307.36 0Q307.11 0 307.01-0.15 306.91-0.3 307.06-0.6L307.06-0.6 308.66-4.35Q309.26-4.6 309.84-5.2 310.41-5.8 311.41-7.05L311.41-7.05 312.41-8.3 320.71-18.25Q319.71-18.3 318.21-18.9L318.21-18.9Q317.41-19.25 316.81-19.4 316.21-19.55 315.46-19.55L315.46-19.55Q313.16-19.55 311.61-17.9L311.61-17.9Q311.06-17.35 310.81-17.35L310.81-17.35Q310.41-17.35 310.41-17.95L310.41-17.95Q310.41-18.3 310.56-18.9L310.56-18.9Q311.01-21 312.64-22.15 314.26-23.3 316.66-23.3L316.66-23.3Q318.01-23.3 320.01-22.8L320.01-22.8Q321.91-22.3 323.06-22.3L323.06-22.3Q324.06-22.3 324.69-22.48 325.31-22.65 325.94-22.98 326.56-23.3 326.86-23.3L326.86-23.3Q327.21-23.3 327.21-22.75L327.21-22.75Q327.21-22.25 326.91-21.7L326.91-21.7 325.06-18.1Q324.56-17.55 324.14-17 323.71-16.45 323.36-16L323.36-16Q322.31-14.6 321.51-13.65L321.51-13.65 315.56-6.65Q314.86-5.75 314.26-5.15L314.26-5.15 314.26-5.1Q315.71-5.05 317.31-4.7L317.31-4.7Q317.61-4.65 318.61-4.5 319.61-4.35 320.66-4.35L320.66-4.35Q322.16-4.35 322.86-4.65 323.56-4.95 323.91-5.65L323.91-5.65Q324.01-5.75 324.09-5.93 324.16-6.1 324.31-6.1L324.31-6.1Q324.66-6.1 324.89-5.58 325.11-5.05 325.11-4.35L325.11-4.35Q325.11-2.45 323.41-1.23 321.71 0 319.16 0L319.16 0Q318.01 0 316.26-0.35L316.26-0.35Q315.41-0.5 314.44-0.65 313.46-0.8 312.46-0.8L312.46-0.8Q310.46-0.8 309.01-0.4 307.56 0 307.36 0L307.36 0Z" opacity="1" transform="matrix(1,0,0,1,0,0)" fill="#ff4057" class="wordmark-text-0" data-fill-palette-color="primary" id="text-0"></path></svg></g></svg></g><g transform="matrix(1,0,0,1,0,53.996666150695404)"><svg viewBox="0 0 223.99999999999997 26.996673085740483" height="26.996673085740483" width="223.99999999999997"><g transform="matrix(1,0,0,1,0,0)"><svg width="223.99999999999997" viewBox="6.579999923706055 -38.130001068115234 320.4800109863281 38.630001068115234" height="26.996673085740483" data-palette-color="#dcdcdc"><path d="M24.05-23.93L24.05-23.93Q24.05-26.85 22.89-28.53 21.73-30.2 19.76-30.91 17.8-31.63 15.4-31.63L15.4-31.63 9.78-31.63 9.78-15.93 15.05-15.93Q17.63-15.93 19.65-16.59 21.68-17.25 22.86-18.99 24.05-20.73 24.05-23.93ZM27.55-24L27.55-24Q27.55-19.98 25.85-17.6 24.15-15.23 21.18-14.19 18.2-13.15 14.38-13.15L14.38-13.15 9.78-13.15 9.78 0 6.58 0 6.58-34.35 14.73-34.35Q20.63-34.35 24.09-31.84 27.55-29.33 27.55-24ZM52.73-26.73L52.73-26.73Q56.33-26.73 58.73-25.05 61.13-23.38 62.31-20.33 63.5-17.28 63.5-13.13L63.5-13.13Q63.5-9.22 62.28-6.15 61.05-3.08 58.64-1.29 56.23 0.5 52.65 0.5L52.65 0.5Q49.05 0.5 46.64-1.21 44.23-2.93 43.01-5.99 41.8-9.05 41.8-13.08L41.8-13.08Q41.8-17.1 43.03-20.18 44.25-23.25 46.69-24.99 49.13-26.73 52.73-26.73ZM52.73-24L52.73-24Q49.03-24 47.11-21.33 45.2-18.65 45.2-13.08L45.2-13.08Q45.2-7.63 47.08-4.94 48.95-2.25 52.65-2.25L52.65-2.25Q56.35-2.25 58.23-4.94 60.1-7.63 60.1-13.13L60.1-13.13Q60.1-18.65 58.24-21.33 56.38-24 52.73-24ZM93.8 0L81.03 0 81.03-2.6 85.3-2.6 85.3-23.63 81.03-23.63 81.03-26.25 87.68-26.25 88.25-19.95Q89.8-23.15 91.96-24.96 94.13-26.78 97.8-26.78L97.8-26.78Q98.83-26.78 99.64-26.63 100.45-26.48 101.35-26.25L101.35-26.25 100.48-23.33Q99.6-23.58 98.94-23.69 98.28-23.8 97.43-23.8L97.43-23.8Q94.25-23.8 92.03-21.64 89.8-19.48 88.4-14.8L88.4-14.8 88.4-2.6 93.8-2.6 93.8 0ZM101-18L98-18 98-23.13 98.2-26.25 101.35-26.25 101-18ZM137.1-3.48L138.45-1.25Q137.15-0.4 135.3 0.05 133.45 0.5 131.88 0.5L131.88 0.5Q127.93 0.5 125.69-1.6 123.45-3.7 123.45-6.88L123.45-6.88 123.45-23.65 117.25-23.65 117.25-26.25 123.45-26.25 123.45-32.3 126.55-32.68 126.55-26.25 135.8-26.25 135.38-23.65 126.55-23.65 126.55-6.95Q126.55-4.67 127.79-3.44 129.03-2.2 131.95-2.2L131.95-2.2Q133.45-2.2 134.73-2.55 136-2.9 137.1-3.48L137.1-3.48ZM171.23-37.3L171.23-37.3Q173.13-37.3 174.7-36.95 176.28-36.6 177.78-35.95L177.78-35.95 176.65-33.43Q175.43-34 174-34.29 172.58-34.58 171.03-34.58L171.03-34.58Q168.15-34.58 166.65-33.43 165.15-32.27 165.15-29.98L165.15-29.98 165.15-24.1 174.18-24.1 173.85-21.45 165.15-21.45 165.15 0 162.05 0 162.05-21.45 155.55-21.45 155.55-24.1 162.05-24.1 162.05-29.78Q162.05-32.15 163.32-33.84 164.58-35.52 166.67-36.41 168.75-37.3 171.23-37.3ZM203.33-26.73L203.33-26.73Q206.93-26.73 209.33-25.05 211.73-23.38 212.92-20.33 214.11-17.28 214.11-13.13L214.11-13.13Q214.11-9.22 212.88-6.15 211.66-3.08 209.24-1.29 206.83 0.5 203.26 0.5L203.26 0.5Q199.66 0.5 197.24-1.21 194.83-2.93 193.62-5.99 192.41-9.05 192.41-13.08L192.41-13.08Q192.41-17.1 193.63-20.18 194.86-23.25 197.29-24.99 199.73-26.73 203.33-26.73ZM203.33-24L203.33-24Q199.63-24 197.72-21.33 195.81-18.65 195.81-13.08L195.81-13.08Q195.81-7.63 197.68-4.94 199.56-2.25 203.26-2.25L203.26-2.25Q206.96-2.25 208.83-4.94 210.71-7.63 210.71-13.13L210.71-13.13Q210.71-18.65 208.84-21.33 206.98-24 203.33-24ZM229.31-36.88L240.56-36.88 240.56-5.95Q240.56-3.9 241.87-3.05 243.18-2.2 245.18-2.2L245.18-2.2Q246.43-2.2 247.54-2.45 248.66-2.7 249.81-3.15L249.81-3.15 250.71-0.75Q249.73-0.28 248.23 0.11 246.73 0.5 244.88 0.5L244.88 0.5Q241.78 0.5 239.62-1.19 237.46-2.88 237.46-5.95L237.46-5.95 237.46-34.18 229.31-34.18 229.31-36.88ZM270.36-26.25L281.51-26.25 281.51-2.7 289.13-2.7 289.13 0 270.11 0 270.11-2.7 278.41-2.7 278.41-23.55 270.36-23.55 270.36-26.25ZM278.58-38.13L278.58-38.13Q279.78-38.13 280.48-37.4 281.18-36.68 281.18-35.65L281.18-35.65Q281.18-34.55 280.48-33.81 279.78-33.08 278.58-33.08L278.58-33.08Q277.46-33.08 276.76-33.81 276.06-34.55 276.06-35.65L276.06-35.65Q276.06-36.68 276.76-37.4 277.46-38.13 278.58-38.13ZM316.28-26.73L316.28-26.73Q319.88-26.73 322.28-25.05 324.68-23.38 325.87-20.33 327.06-17.28 327.06-13.13L327.06-13.13Q327.06-9.22 325.83-6.15 324.61-3.08 322.2-1.29 319.78 0.5 316.21 0.5L316.21 0.5Q312.61 0.5 310.2-1.21 307.78-2.93 306.57-5.99 305.36-9.05 305.36-13.08L305.36-13.08Q305.36-17.1 306.58-20.18 307.81-23.25 310.25-24.99 312.68-26.73 316.28-26.73ZM316.28-24L316.28-24Q312.58-24 310.67-21.33 308.76-18.65 308.76-13.08L308.76-13.08Q308.76-7.63 310.63-4.94 312.51-2.25 316.21-2.25L316.21-2.25Q319.91-2.25 321.78-4.94 323.66-7.63 323.66-13.13L323.66-13.13Q323.66-18.65 321.8-21.33 319.93-24 316.28-24Z" opacity="1" transform="matrix(1,0,0,1,0,0)" fill="#dcdcdc" class="slogan-text-1" data-fill-palette-color="secondary" id="text-1"></path></svg></g></svg></g></svg></g></svg></g><g></g></svg></g></svg></g></svg></g></svg></g><defs></defs></svg><rect width="320" height="360" fill="none" stroke="none" visibility="hidden"></rect></g></svg></g></svg>